<svg width="37" height="35" viewBox="0 0 37 35" fill="none" xmlns="http://www.w3.org/2000/svg">
<mask id="mask0_16_3278" style="mask-type:luminance" maskUnits="userSpaceOnUse" x="0" y="0" width="37" height="34">
<path d="M0 0.43158H36.4228V33.6707H0V0.43158Z" fill="white"/>
</mask>
<g mask="url(#mask0_16_3278)">
<path d="M34.234 0.544525H2.18874C0.981392 0.544525 0 1.52592 0 2.73326V31.444C0 32.6505 0.981392 33.6328 2.18874 33.6328H34.234C35.4414 33.6328 36.4228 32.6505 36.4228 31.444V2.73326C36.4228 1.52592 35.4405 0.544525 34.234 0.544525ZM27.6349 4.21968C27.6349 3.77367 27.9966 3.41198 28.4426 3.41198H29.2512C29.6972 3.41198 30.0589 3.77367 30.0589 4.21968V5.13616C30.0589 5.58217 29.6972 5.94386 29.2512 5.94386H28.4426C27.9966 5.94386 27.6349 5.58217 27.6349 5.13616V4.21968ZM23.8763 4.21968C23.8763 3.77367 24.2389 3.41198 24.6849 3.41198H25.4926C25.9394 3.41198 26.3011 3.77367 26.3011 4.21968V5.13616C26.3011 5.58217 25.9394 5.94386 25.4926 5.94386H24.6849C24.2389 5.94386 23.8763 5.58217 23.8763 5.13616V4.21968ZM33.7965 31.0064H2.62632V8.37205H33.7965V31.0064ZM33.8175 5.13616C33.8175 5.58217 33.4558 5.94386 33.009 5.94386H32.2013C31.7544 5.94386 31.3927 5.58217 31.3927 5.13616V4.21968C31.3927 3.77367 31.7544 3.41198 32.2013 3.41198H33.009C33.4558 3.41198 33.8175 3.77367 33.8175 4.21968V5.13616Z" fill="#FFC25B"/>
</g>
<path d="M7.81668 20.5426L13.6755 23.2668C13.8273 23.3376 13.9883 23.373 14.1553 23.373C14.3719 23.373 14.5836 23.3114 14.7674 23.1943C15.097 22.9835 15.2935 22.6251 15.2935 22.2348V22.2044C15.2935 21.7635 15.0355 21.3579 14.635 21.1716L10.9708 19.4693L14.635 17.7671C15.0355 17.5808 15.2935 17.1752 15.2935 16.7343V16.7048C15.2935 16.3135 15.097 15.9544 14.7674 15.7453C14.5853 15.6289 14.3736 15.5674 14.1544 15.5674C13.9892 15.5674 13.8231 15.6036 13.6747 15.6719L7.81668 18.3961C7.41704 18.5824 7.1582 18.9879 7.1582 19.4289V19.5107C7.1582 19.9508 7.4162 20.3555 7.81668 20.5426Z" fill="#FFC25B" stroke="#FFC25B" stroke-width="0.0928713"/>
<path d="M15.3494 26.092C15.5636 26.3845 15.9067 26.5591 16.2693 26.5591H16.2988C16.7954 26.5591 17.2313 26.2412 17.3822 25.7682L21.242 13.8094C21.3524 13.4646 21.2909 13.0835 21.0776 12.7909C20.8634 12.4983 20.5203 12.3238 20.1577 12.3238H20.1282C19.6316 12.3238 19.1957 12.6417 19.044 13.1147L15.1842 25.0735C15.0746 25.4192 15.1361 25.7994 15.3494 26.092Z" fill="#FFC25B" stroke="#FFC25B" stroke-width="0.0928713"/>
<path d="M21.127 16.7343C21.127 17.1752 21.3858 17.5799 21.7863 17.7671L25.4505 19.4693L21.7863 21.1716C21.3858 21.3579 21.127 21.7635 21.127 22.2044V22.2339C21.127 22.6251 21.3242 22.9835 21.6539 23.1943C21.8369 23.3106 22.0485 23.373 22.266 23.373C22.4329 23.373 22.594 23.3376 22.7466 23.2668L28.6046 20.5426C29.0051 20.3555 29.2631 19.9508 29.2631 19.5098V19.4289C29.2631 18.9879 29.0051 18.5824 28.6046 18.3961L22.7457 15.6719C22.5982 15.6036 22.4329 15.5674 22.2677 15.5674C22.0485 15.5674 21.836 15.6281 21.6539 15.7444C21.3242 15.9544 21.1278 16.3135 21.1278 16.7048V16.7343H21.127Z" fill="#FFC25B" stroke="#FFC25B" stroke-width="0.0928713"/>
</svg>
